<?xml version="1.0" encoding="UTF-8" standalone="no"?>
<svg
   xmlns:dc="http://purl.org/dc/elements/1.1/"
   xmlns:cc="http://creativecommons.org/ns#"
   xmlns:rdf="http://www.w3.org/1999/02/22-rdf-syntax-ns#"
   xmlns:svg="http://www.w3.org/2000/svg"
   xmlns="http://www.w3.org/2000/svg"
   version="1.1"
   id="svg2"
   viewBox="0 0 420 165"
   height="165"
   width="420">
  <defs
     id="defs4" />
  <metadata
     id="metadata7">
    <rdf:RDF>
      <cc:Work
         rdf:about="">
        <dc:format>image/svg+xml</dc:format>
        <dc:type
           rdf:resource="http://purl.org/dc/dcmitype/StillImage" />
        <dc:title></dc:title>
      </cc:Work>
    </rdf:RDF>
  </metadata>
  <g
     transform="translate(0,-887.36216)"
     id="layer1">
    <g
       transform="matrix(0.53345486,0,0,0.50709117,11.085809,820.30562)"
       id="g4798">
      <path
         style="fill:#ffffff;fill-opacity:1;fill-rule:nonzero;stroke:none;stroke-width:1.22800004;stroke-linejoin:round;stroke-miterlimit:4;stroke-dasharray:none;stroke-opacity:1"
         d="m 226.52344,150.29492 c -16.96582,0.28219 -42.13942,7.63501 -67.29688,7.80274 -33.54325,0.22361 -67.058591,-12.32492 -81.058591,-4.11719 -13.9998,8.20774 -14.980694,40.71776 -31.558594,69.87891 -16.5781,29.16111 -48.7527313,54.97309 -48.6445312,71.20117 0.1080999,16.2281 24.2827472,40.33201 41.2480472,69.26953 16.9653,28.93751 26.720025,62.70814 40.828125,70.72851 14.108,8.02036 48.445054,-3.44629 81.988284,-3.66992 33.54325,-0.22363 66.29314,10.79563 80.29297,2.58789 13.99985,-8.20774 18.80485,-41.4834 35.38281,-70.64453 16.57799,-29.16113 44.9285,-54.20744 44.82031,-70.43555 -0.10819,-16.22809 -29.63821,-36.50781 -46.60351,-65.44531 -16.9653,-28.93752 -21.36461,-66.53238 -35.47266,-74.55273 -3.52701,-2.00509 -8.27051,-2.69758 -13.92578,-2.60352 z m -29.45899,60.16406 c 10.47621,4.06508 82.80673,57.5183 35.99219,136.53516 -17.02733,28.73991 -44.69923,36.59735 -59.20312,37.7793 -30.0874,2.45189 -53.80025,-3.16603 -65.21875,-11.08985 -11.039108,-7.66048 -33.870032,-22.26741 -39.611332,-61.05273 -2.5963,-17.53923 4.5951,-49.50983 21.25,-65.55469 21.830602,-21.03094 43.945782,-22.41405 63.925782,-19.88867 31.46986,3.58258 49.625,32.77287 49.625,58.71484 0,25.94197 -20.59842,46.03467 -46.97266,44.95118 -30.06955,-1.93629 -32.31054,-34.11719 -32.31054,-34.11719 0,0 20.10718,24.8085 37.94921,14.01172 12.75812,-7.72035 14.96086,-32.02988 0.29102,-41.78321 -13.25197,-8.81065 -40.20511,-12.44265 -52.32031,15.53907 -6.9947,16.15514 -5.44779,59.75297 40.23047,64.13671 12.43117,1.19302 37.8756,2.63682 57.42578,-19.89257 36.54475,-42.11373 8.90189,-102.02482 -11.05274,-118.28907 z"
         id="path4212" />
      <g
         id="g4216"
         transform="matrix(0.90184492,0,0,0.90184492,182.96366,25.280967)"
         style="fill:#ffffff;fill-opacity:1">
        <text
           id="text4218"
           y="323.79077"
           x="174.28571"
           style="font-style:normal;font-weight:normal;font-size:62.5px;line-height:125%;font-family:sans-serif;letter-spacing:0px;word-spacing:0px;fill:#ffffff;fill-opacity:1;stroke:none;stroke-width:1px;stroke-linecap:butt;stroke-linejoin:miter;stroke-opacity:1"
           xml:space="preserve"><tspan
             style="font-style:normal;font-variant:normal;font-weight:normal;font-stretch:normal;font-size:180px;font-family:'Rubik Mono One';-inkscape-font-specification:'Rubik Mono One';fill:#ffffff;fill-opacity:1"
             y="323.79077"
             x="174.28571"
             id="tspan4220">mcg</tspan></text>
        <text
           id="text4222"
           y="401.14273"
           x="180.97342"
           style="font-style:normal;font-weight:normal;font-size:47.73298645px;line-height:125%;font-family:sans-serif;letter-spacing:0px;word-spacing:0px;fill:#ffffff;fill-opacity:1;stroke:none;stroke-width:1px;stroke-linecap:butt;stroke-linejoin:miter;stroke-opacity:1"
           xml:space="preserve"><tspan
             y="401.14273"
             x="180.97342"
             id="tspan4224">Software Solutions</tspan></text>
      </g>
      <path
         style="fill:#ffffff;fill-opacity:0.45;fill-rule:nonzero;stroke:none;stroke-width:1.22800004;stroke-linejoin:round;stroke-miterlimit:4;stroke-dasharray:none;stroke-opacity:1"
         d="m 203.82388,285.90203 c 0,25.94197 -20.59785,46.03529 -46.97209,44.9518 -30.06955,-1.93629 -32.3106,-34.11695 -32.3106,-34.11695 0,0 20.10663,24.80867 37.94866,14.01189 12.75812,-7.72035 14.96055,-32.03138 0.29071,-41.78471 -13.25197,-8.81065 -40.20497,-12.44137 -52.32017,15.54035 -6.9947,16.15514 -5.4475,59.75244 40.23076,64.13619 12.43117,1.19302 37.87593,2.6362 57.42611,-19.89319 36.54475,-42.11373 8.90209,-102.02421 -11.05254,-118.28846 10.47621,4.06508 82.80658,57.51881 35.99204,136.53567 -17.02733,28.73991 -44.69845,36.5965 -59.20234,37.77845 -30.0874,2.45189 -53.80083,-3.1652 -65.21933,-11.08902 -11.039104,-7.66048 -33.870004,-22.26697 -39.611304,-61.05229 -2.5963,-17.53923 4.5953,-49.5104 21.2502,-65.55526 21.830604,-21.03094 43.946154,-22.41496 63.926154,-19.88958 31.46986,3.58258 49.62374,32.77314 49.62374,58.71511 z"
         id="path4793" />
    </g>
  </g>
</svg>
